<mxfile host="Electron" agent="Mozilla/5.0 (Windows NT 10.0; Win64; x64) AppleWebKit/537.36 (KHTML, like Gecko) draw.io/26.0.16 Chrome/132.0.6834.196 Electron/34.2.0 Safari/537.36" version="26.0.16">
  <diagram name="Page-1" id="iUgZnvfVzkUDdOHdnARB">
    <mxGraphModel dx="1924" dy="1272" grid="1" gridSize="10" guides="1" tooltips="1" connect="1" arrows="1" fold="1" page="1" pageScale="1" pageWidth="850" pageHeight="1100" math="0" shadow="0">
      <root>
        <mxCell id="0" />
        <mxCell id="1" parent="0" />
        <mxCell id="uCy3Vy9B2igQL5hsRS7q-2" value="IHttpService" style="swimlane;fontStyle=1;align=center;verticalAlign=top;childLayout=stackLayout;horizontal=1;startSize=26;horizontalStack=0;resizeParent=1;resizeParentMax=0;resizeLast=0;collapsible=1;marginBottom=0;whiteSpace=wrap;html=1;" parent="1" vertex="1">
          <mxGeometry x="-425" y="260" width="260" height="100" as="geometry" />
        </mxCell>
        <mxCell id="uCy3Vy9B2igQL5hsRS7q-3" value="_httpClient : HttpClient" style="text;strokeColor=none;fillColor=none;align=left;verticalAlign=top;spacingLeft=4;spacingRight=4;overflow=hidden;rotatable=0;points=[[0,0.5],[1,0.5]];portConstraint=eastwest;whiteSpace=wrap;html=1;" parent="uCy3Vy9B2igQL5hsRS7q-2" vertex="1">
          <mxGeometry y="26" width="260" height="26" as="geometry" />
        </mxCell>
        <mxCell id="uCy3Vy9B2igQL5hsRS7q-4" value="" style="line;strokeWidth=1;fillColor=none;align=left;verticalAlign=middle;spacingTop=-1;spacingLeft=3;spacingRight=3;rotatable=0;labelPosition=right;points=[];portConstraint=eastwest;strokeColor=inherit;" parent="uCy3Vy9B2igQL5hsRS7q-2" vertex="1">
          <mxGeometry y="52" width="260" height="8" as="geometry" />
        </mxCell>
        <mxCell id="uCy3Vy9B2igQL5hsRS7q-5" value="ExceptionCatcher : ObservableCollection&amp;lt;Exception&amp;gt;" style="text;strokeColor=none;fillColor=none;align=left;verticalAlign=top;spacingLeft=4;spacingRight=4;overflow=hidden;rotatable=0;points=[[0,0.5],[1,0.5]];portConstraint=eastwest;whiteSpace=wrap;html=1;" parent="uCy3Vy9B2igQL5hsRS7q-2" vertex="1">
          <mxGeometry y="60" width="260" height="40" as="geometry" />
        </mxCell>
        <mxCell id="uCy3Vy9B2igQL5hsRS7q-7" value="if a client throws an exception" style="rounded=0;whiteSpace=wrap;html=1;" parent="1" vertex="1">
          <mxGeometry x="10" y="282" width="120" height="30" as="geometry" />
        </mxCell>
        <mxCell id="uCy3Vy9B2igQL5hsRS7q-8" style="edgeStyle=orthogonalEdgeStyle;rounded=0;orthogonalLoop=1;jettySize=auto;html=1;entryX=-0.007;entryY=0.642;entryDx=0;entryDy=0;entryPerimeter=0;" parent="1" source="uCy3Vy9B2igQL5hsRS7q-3" target="uCy3Vy9B2igQL5hsRS7q-7" edge="1">
          <mxGeometry relative="1" as="geometry" />
        </mxCell>
        <mxCell id="uCy3Vy9B2igQL5hsRS7q-9" style="edgeStyle=orthogonalEdgeStyle;rounded=0;orthogonalLoop=1;jettySize=auto;html=1;entryX=1.007;entryY=0.599;entryDx=0;entryDy=0;entryPerimeter=0;" parent="1" source="uCy3Vy9B2igQL5hsRS7q-7" target="uCy3Vy9B2igQL5hsRS7q-5" edge="1">
          <mxGeometry relative="1" as="geometry" />
        </mxCell>
        <mxCell id="uCy3Vy9B2igQL5hsRS7q-10" value="it will be added to&amp;nbsp;" style="edgeLabel;html=1;align=center;verticalAlign=middle;resizable=0;points=[];" parent="uCy3Vy9B2igQL5hsRS7q-9" vertex="1" connectable="0">
          <mxGeometry x="0.174" y="-2" relative="1" as="geometry">
            <mxPoint as="offset" />
          </mxGeometry>
        </mxCell>
        <mxCell id="MojN7WVEDhsCOxsMvcSD-11" value="" style="edgeStyle=orthogonalEdgeStyle;rounded=0;orthogonalLoop=1;jettySize=auto;html=1;" edge="1" parent="1" source="MojN7WVEDhsCOxsMvcSD-5" target="MojN7WVEDhsCOxsMvcSD-9">
          <mxGeometry relative="1" as="geometry" />
        </mxCell>
        <mxCell id="MojN7WVEDhsCOxsMvcSD-5" value="INotifierService&amp;lt;T&amp;gt; : INotifierService" style="swimlane;fontStyle=1;align=center;verticalAlign=top;childLayout=stackLayout;horizontal=1;startSize=26;horizontalStack=0;resizeParent=1;resizeParentMax=0;resizeLast=0;collapsible=1;marginBottom=0;whiteSpace=wrap;html=1;" vertex="1" parent="1">
          <mxGeometry x="-750" y="340" width="250" height="74" as="geometry" />
        </mxCell>
        <mxCell id="MojN7WVEDhsCOxsMvcSD-22" value="+ Messages: ObservableCollection&amp;lt;T&amp;gt;" style="text;strokeColor=none;fillColor=none;align=left;verticalAlign=top;spacingLeft=4;spacingRight=4;overflow=hidden;rotatable=0;points=[[0,0.5],[1,0.5]];portConstraint=eastwest;whiteSpace=wrap;html=1;" vertex="1" parent="MojN7WVEDhsCOxsMvcSD-5">
          <mxGeometry y="26" width="250" height="24" as="geometry" />
        </mxCell>
        <mxCell id="MojN7WVEDhsCOxsMvcSD-6" value="+ CollectionChangedEventHandler" style="text;strokeColor=none;fillColor=none;align=left;verticalAlign=top;spacingLeft=4;spacingRight=4;overflow=hidden;rotatable=0;points=[[0,0.5],[1,0.5]];portConstraint=eastwest;whiteSpace=wrap;html=1;" vertex="1" parent="MojN7WVEDhsCOxsMvcSD-5">
          <mxGeometry y="50" width="250" height="24" as="geometry" />
        </mxCell>
        <mxCell id="MojN7WVEDhsCOxsMvcSD-14" value="" style="edgeStyle=orthogonalEdgeStyle;rounded=0;orthogonalLoop=1;jettySize=auto;html=1;" edge="1" parent="1" source="MojN7WVEDhsCOxsMvcSD-9" target="MojN7WVEDhsCOxsMvcSD-12">
          <mxGeometry relative="1" as="geometry" />
        </mxCell>
        <mxCell id="MojN7WVEDhsCOxsMvcSD-9" value="ErrorNotifierService" style="swimlane;fontStyle=1;align=center;verticalAlign=top;childLayout=stackLayout;horizontal=1;startSize=26;horizontalStack=0;resizeParent=1;resizeParentMax=0;resizeLast=0;collapsible=1;marginBottom=0;whiteSpace=wrap;html=1;" vertex="1" parent="1">
          <mxGeometry x="-750" y="470" width="250" height="50" as="geometry" />
        </mxCell>
        <mxCell id="MojN7WVEDhsCOxsMvcSD-21" value="+ Errors: ObservableCollection&amp;lt;Exception&amp;gt;" style="text;strokeColor=none;fillColor=none;align=left;verticalAlign=top;spacingLeft=4;spacingRight=4;overflow=hidden;rotatable=0;points=[[0,0.5],[1,0.5]];portConstraint=eastwest;whiteSpace=wrap;html=1;" vertex="1" parent="MojN7WVEDhsCOxsMvcSD-9">
          <mxGeometry y="26" width="250" height="24" as="geometry" />
        </mxCell>
        <mxCell id="MojN7WVEDhsCOxsMvcSD-12" value="HttpService : ErrorNotifierService" style="swimlane;fontStyle=1;align=center;verticalAlign=top;childLayout=stackLayout;horizontal=1;startSize=26;horizontalStack=0;resizeParent=1;resizeParentMax=0;resizeLast=0;collapsible=1;marginBottom=0;whiteSpace=wrap;html=1;" vertex="1" parent="1">
          <mxGeometry x="-400" y="446" width="250" height="98" as="geometry" />
        </mxCell>
        <mxCell id="MojN7WVEDhsCOxsMvcSD-13" value="+ Errors: ObservableCollection&amp;lt;Exception&amp;gt;" style="text;strokeColor=none;fillColor=none;align=left;verticalAlign=top;spacingLeft=4;spacingRight=4;overflow=hidden;rotatable=0;points=[[0,0.5],[1,0.5]];portConstraint=eastwest;whiteSpace=wrap;html=1;" vertex="1" parent="MojN7WVEDhsCOxsMvcSD-12">
          <mxGeometry y="26" width="250" height="24" as="geometry" />
        </mxCell>
        <mxCell id="MojN7WVEDhsCOxsMvcSD-15" value="+ Client: HttpClient" style="text;strokeColor=none;fillColor=none;align=left;verticalAlign=top;spacingLeft=4;spacingRight=4;overflow=hidden;rotatable=0;points=[[0,0.5],[1,0.5]];portConstraint=eastwest;whiteSpace=wrap;html=1;" vertex="1" parent="MojN7WVEDhsCOxsMvcSD-12">
          <mxGeometry y="50" width="250" height="24" as="geometry" />
        </mxCell>
        <mxCell id="MojN7WVEDhsCOxsMvcSD-17" value="+ CollectionChangedEventHandler" style="text;strokeColor=none;fillColor=none;align=left;verticalAlign=top;spacingLeft=4;spacingRight=4;overflow=hidden;rotatable=0;points=[[0,0.5],[1,0.5]];portConstraint=eastwest;whiteSpace=wrap;html=1;" vertex="1" parent="MojN7WVEDhsCOxsMvcSD-12">
          <mxGeometry y="74" width="250" height="24" as="geometry" />
        </mxCell>
        <mxCell id="MojN7WVEDhsCOxsMvcSD-27" value="" style="edgeStyle=orthogonalEdgeStyle;rounded=0;orthogonalLoop=1;jettySize=auto;html=1;" edge="1" parent="1" source="MojN7WVEDhsCOxsMvcSD-25" target="MojN7WVEDhsCOxsMvcSD-15">
          <mxGeometry relative="1" as="geometry" />
        </mxCell>
        <mxCell id="MojN7WVEDhsCOxsMvcSD-28" value="uses service to access client" style="edgeLabel;html=1;align=center;verticalAlign=middle;resizable=0;points=[];" vertex="1" connectable="0" parent="MojN7WVEDhsCOxsMvcSD-27">
          <mxGeometry x="0.1474" y="-3" relative="1" as="geometry">
            <mxPoint as="offset" />
          </mxGeometry>
        </mxCell>
        <mxCell id="MojN7WVEDhsCOxsMvcSD-29" value="provide error list to bind to the ui with an event handler" style="edgeLabel;html=1;align=center;verticalAlign=middle;resizable=0;points=[];" vertex="1" connectable="0" parent="MojN7WVEDhsCOxsMvcSD-27">
          <mxGeometry x="0.1356" relative="1" as="geometry">
            <mxPoint x="57" y="12" as="offset" />
          </mxGeometry>
        </mxCell>
        <mxCell id="MojN7WVEDhsCOxsMvcSD-25" value="&lt;p style=&quot;margin:0px;margin-top:6px;text-align:center;&quot;&gt;&lt;b&gt;HttpClientBasedComponent&lt;/b&gt;&lt;/p&gt;&lt;hr size=&quot;1&quot; style=&quot;border-style:solid;&quot;&gt;&lt;p style=&quot;margin:0px;margin-left:8px;&quot;&gt;&lt;br&gt;&lt;/p&gt;" style="align=left;overflow=fill;html=1;dropTarget=0;whiteSpace=wrap;" vertex="1" parent="1">
          <mxGeometry x="-10" y="530" width="230" height="30" as="geometry" />
        </mxCell>
        <mxCell id="MojN7WVEDhsCOxsMvcSD-26" value="" style="shape=component;jettyWidth=8;jettyHeight=4;" vertex="1" parent="MojN7WVEDhsCOxsMvcSD-25">
          <mxGeometry x="1" width="20" height="20" relative="1" as="geometry">
            <mxPoint x="-24" y="4" as="offset" />
          </mxGeometry>
        </mxCell>
      </root>
    </mxGraphModel>
  </diagram>
</mxfile>
